<svg width="174" height="37" viewBox="0 0 174 37" fill="none" xmlns="http://www.w3.org/2000/svg">
<g id="Logo Igreja Wide" clip-path="url(#clip0_3_37)">
<path id="Vector" d="M12.3117 0.108154H11.4158V36.1082H12.3117V0.108154Z" fill="white"/>
<path id="Vector_2" d="M0 9.21913L0 10.1743L21.9747 10.1743V9.21913L0 9.21913Z" fill="white"/>
<path id="Vector_3" d="M10.8719 2.69727C10.8719 2.69727 11.8081 12.7178 7.27295 16.4501C2.73779 20.1823 5.87067 22.5917 8.85191 24.0238C11.8332 25.4559 10.6256 33.5204 10.6256 33.5204C10.6256 33.5204 9.47932 29.9264 4.71184 28.9823C-0.0556481 28.0381 -0.638542 18.8152 0.493858 14.718C0.837473 15.7202 2.88108 22.354 4.89964 21.9987C4.89964 21.9987 0.475773 16.8426 2.69605 12.8754C4.25415 10.0913 8.29962 6.63552 10.8719 2.69727Z" fill="#EE2424"/>
<path id="Vector_4" d="M16.9735 7.07375C17.4586 6.12341 18.0031 5.20421 18.6039 4.32154C18.9591 3.80086 19.3264 3.30598 19.7057 2.83691H19.1576C18.8571 3.22212 18.5645 3.623 18.2798 4.03954C17.7164 4.86842 17.2012 5.72872 16.737 6.6162C16.0422 5.28799 15.2308 4.02332 14.3122 2.83691H13.7557C14.1341 3.30691 14.5014 3.80178 14.8575 4.32154C15.4601 5.20868 16.007 6.132 16.4949 7.08619C14.3247 11.4198 13.1144 16.6146 13.1144 21.8177C13.1144 27.4852 14.3511 30.959 16.4212 33.0795C16.5227 33.1832 16.6257 33.2841 16.73 33.3809C16.8344 33.2841 16.9373 33.1832 17.0375 33.0795C19.1075 30.959 20.3456 27.4908 20.3456 21.8177C20.347 16.3754 19.0866 11.2664 16.9735 7.07375ZM16.7314 32.7851C14.5543 30.5733 13.5318 27.0249 13.5318 21.8204C13.5318 16.7929 14.6781 11.7737 16.7314 7.55895C18.7917 11.7737 19.938 16.7929 19.938 21.8204C19.938 27.0221 18.903 30.5761 16.7314 32.7823V32.7851Z" fill="white"/>
<path id="Vector_5" d="M17.5007 14.2951V14.3849H15.9357V14.2951H16.065C16.1252 14.3007 16.1859 14.2929 16.2427 14.2723C16.2995 14.2518 16.3509 14.2189 16.3934 14.1762C16.4505 14.06 16.4732 13.9301 16.4587 13.8016V11.67C16.4658 11.5586 16.4535 11.4469 16.4226 11.3396C16.3997 11.2927 16.3608 11.2554 16.3127 11.2346C16.2358 11.1965 16.151 11.1766 16.065 11.1765H15.9357V11.0867H17.5007V11.1765H17.3727C17.313 11.1713 17.2529 11.1793 17.1966 11.1998C17.1403 11.2204 17.0893 11.253 17.0472 11.2954C16.9873 11.4107 16.9636 11.5412 16.979 11.67V13.8016C16.9718 13.9129 16.9841 14.0247 17.0152 14.1319C17.0388 14.1793 17.0788 14.2166 17.1279 14.237C17.2037 14.2755 17.2876 14.2954 17.3727 14.2951H17.5007Z" fill="white"/>
<path id="Vector_6" d="M16.9762 16.3685L17.7609 17.4246C17.8983 17.6279 18.0604 17.8136 18.2436 17.9775C18.3614 18.0589 18.5008 18.1036 18.6442 18.106V18.1959H17.0764V18.1088C17.1544 18.1111 17.2323 18.1013 17.3073 18.0798C17.3441 18.0662 17.3764 18.0428 17.4005 18.0121C17.4234 17.9871 17.4363 17.9546 17.4367 17.9208C17.4368 17.8823 17.4287 17.8441 17.4131 17.8088C17.3683 17.7345 17.3191 17.663 17.2656 17.5946L16.6452 16.7486L15.88 17.6333C15.828 17.6921 15.7815 17.7555 15.7409 17.8227C15.7247 17.8529 15.7161 17.8866 15.7159 17.9208C15.716 17.9467 15.7228 17.9722 15.7358 17.9947C15.7487 18.0172 15.7672 18.0361 15.7896 18.0494C15.8756 18.0928 15.9715 18.1133 16.0678 18.1088V18.1987H14.7727V18.1088C14.8535 18.1031 14.9332 18.0858 15.0092 18.0577C15.1218 18.0139 15.2288 17.9569 15.3277 17.8876C15.4545 17.7913 15.5698 17.6809 15.6713 17.5586L16.5339 16.5758L15.8077 15.6206C15.6735 15.4233 15.5048 15.2515 15.3096 15.1133C15.166 15.0313 15.0037 14.987 14.838 14.9847V14.8949H16.5269V14.9847C16.4247 14.98 16.323 15.002 16.232 15.0483C16.2095 15.061 16.1905 15.079 16.1767 15.1007C16.1628 15.1224 16.1546 15.1471 16.1527 15.1727C16.1699 15.2707 16.2148 15.3618 16.2821 15.4354L16.8385 16.1915L17.4868 15.4492C17.5387 15.3937 17.5853 15.3336 17.6259 15.2695C17.6423 15.2389 17.6509 15.2047 17.651 15.17C17.6513 15.1372 17.64 15.1054 17.619 15.0801C17.5929 15.0462 17.557 15.0211 17.516 15.0082C17.4324 14.9903 17.3469 14.9824 17.2614 14.9847V14.8949H18.5566V14.9847C18.4713 14.9866 18.3869 15.0015 18.3062 15.029C18.21 15.0654 18.1199 15.1162 18.0391 15.1797C17.915 15.2866 17.8005 15.4041 17.6969 15.5308L16.9762 16.3685Z" fill="white"/>
<path id="Vector_7" d="M16.7537 18.6314C17.2022 18.6321 17.6343 18.7992 17.9654 19.1C18.1437 19.2538 18.2849 19.4455 18.3785 19.6608C18.4722 19.8762 18.5159 20.1097 18.5065 20.3441C18.5139 20.5789 18.4701 20.8125 18.3781 21.0289C18.2862 21.2453 18.1482 21.4394 17.9737 21.5979C17.6322 21.9171 17.1793 22.092 16.7105 22.0858C16.4701 22.0966 16.23 22.0564 16.0064 21.9677C15.7829 21.879 15.5809 21.744 15.414 21.5716C15.0965 21.2433 14.9224 20.8035 14.9299 20.3482C14.9213 20.1135 14.9658 19.8799 15.0602 19.6646C15.1546 19.4493 15.2964 19.2577 15.4752 19.1041C15.8272 18.7938 16.2831 18.6253 16.7537 18.6314ZM16.7022 18.8097C16.542 18.8051 16.383 18.8379 16.238 18.9056C16.093 18.9734 15.9661 19.074 15.8675 19.1995C15.656 19.4594 15.5503 19.8377 15.5503 20.3344C15.5327 20.7336 15.6359 21.1289 15.8466 21.4693C15.9393 21.611 16.0676 21.7262 16.2189 21.8033C16.3703 21.8804 16.5393 21.9168 16.7092 21.9089C16.8738 21.916 17.0379 21.8848 17.1884 21.8179C17.3388 21.7509 17.4715 21.65 17.5758 21.5232C17.7873 21.2661 17.8944 20.8929 17.8944 20.4021C17.8944 19.9114 17.7943 19.5161 17.5967 19.2341C17.4967 19.0931 17.3619 18.98 17.2053 18.9057C17.0486 18.8314 16.8754 18.7983 16.7022 18.8097ZM16.0692 19.7677H16.1708C16.1657 19.8214 16.1715 19.8756 16.1877 19.9271C16.2039 19.9786 16.2303 20.0264 16.2654 20.0676C16.3665 20.1386 16.4901 20.1705 16.6132 20.1575H16.8316C16.951 20.1691 17.0707 20.1371 17.1682 20.0676C17.2044 20.027 17.2317 19.9794 17.2484 19.9277C17.2652 19.8761 17.271 19.8216 17.2656 19.7677H17.3727V20.9426H17.2712C17.2762 20.8893 17.2704 20.8356 17.2541 20.7845C17.2379 20.7335 17.2115 20.6862 17.1766 20.6454C17.0765 20.5747 16.9538 20.5427 16.8316 20.5556H16.6076C16.4885 20.5437 16.3692 20.5757 16.2723 20.6454C16.2369 20.6859 16.2101 20.7331 16.1936 20.7842C16.1771 20.8353 16.1712 20.8892 16.1763 20.9426H16.0748L16.0692 19.7677Z" fill="white"/>
<path id="Vector_8" d="M17.4562 22.5171H18.7305V22.6069H18.6595C18.5885 22.6137 18.5193 22.6329 18.455 22.6636C18.3641 22.7015 18.2811 22.7559 18.2102 22.824C18.1063 22.9278 18.0131 23.0417 17.932 23.164L17.0514 24.4178V25.2472C17.0514 25.4504 17.0764 25.5762 17.1279 25.6273C17.1722 25.6647 17.2236 25.6929 17.279 25.7105C17.3344 25.7281 17.3927 25.7346 17.4506 25.7296H17.5689V25.8195H16.0233V25.7296H16.1527C16.2136 25.7358 16.2752 25.7275 16.3323 25.7053C16.3893 25.6832 16.4403 25.648 16.481 25.6024C16.5326 25.4915 16.5533 25.3688 16.5408 25.2472V24.4676L15.5378 23.0852C15.4643 22.9787 15.384 22.8771 15.2971 22.7811C15.2177 22.7193 15.129 22.6704 15.0342 22.636C14.9846 22.6168 14.9315 22.6084 14.8784 22.6111V22.5212H16.4407V22.6111H16.36C16.2788 22.6102 16.1987 22.6287 16.1263 22.665C16.0947 22.6784 16.0678 22.7007 16.049 22.7293C16.0301 22.7578 16.0202 22.7912 16.0205 22.8253C16.0482 22.9427 16.1046 23.0514 16.1847 23.1419L16.947 24.2049L17.6635 23.1875C17.7473 23.0908 17.803 22.9732 17.8249 22.8475C17.8257 22.8038 17.812 22.761 17.7859 22.7258C17.7573 22.6881 17.7188 22.6589 17.6746 22.6415C17.6043 22.6183 17.5303 22.608 17.4562 22.6111V22.5171Z" fill="white"/>
<path id="Vector_9" d="M15.1984 26.3268H17.9375L18.0099 27.1562H17.9069C17.9031 27.0259 17.8718 26.8978 17.8151 26.7802C17.7714 26.6971 17.7016 26.6306 17.6162 26.5908C17.4879 26.5449 17.3517 26.5252 17.2155 26.5328H15.9635L17.0764 27.8225L15.8105 29.173H17.2016C17.3997 29.1835 17.5973 29.1461 17.7776 29.0638C17.9343 28.9567 18.0419 28.7921 18.0767 28.6062L18.1796 28.6284L18.0238 29.625H15.1984V29.5379L16.6034 28.0395L15.1984 26.4139V26.3268Z" fill="white"/>
<path id="Vector_10" d="M32.6879 21.1914L29.3631 16.3118H27.5393V26.8216H29.2365V18.8276L32.6142 23.6547L36.1505 18.7986V26.8216H37.895V16.3118H36.1032L32.6879 21.1914Z" fill="white"/>
<path id="Vector_11" d="M46.8318 20.8736C46.6249 20.2391 46.2224 19.6854 45.6813 19.2908C45.1527 18.912 44.4604 18.7227 43.6043 18.7227C42.4413 18.7227 41.5348 19.0775 40.8846 19.787C40.2345 20.4966 39.9099 21.5394 39.9108 22.9153C39.9108 23.8082 40.0666 24.5644 40.3783 25.1837C40.6645 25.7774 41.1299 26.2679 41.7096 26.5867C42.3375 26.9138 43.0389 27.0765 43.7476 27.0595C44.275 27.0647 44.8014 27.0147 45.3182 26.9102C45.7469 26.8204 46.1661 26.6908 46.5703 26.5231V24.9943C46.3478 25.103 46.1198 25.2004 45.8872 25.286C45.6065 25.3909 45.3175 25.4727 45.0233 25.5306C44.6916 25.5957 44.3542 25.6272 44.0161 25.6246C43.2139 25.6246 42.606 25.3942 42.1923 24.9335C41.8306 24.5326 41.6275 23.9677 41.583 23.2387H47.1727C47.1966 22.4367 47.0814 21.6366 46.8318 20.8736ZM42.4775 20.3386C42.8071 20.1567 43.1802 20.0668 43.557 20.0787C44.2118 20.0787 44.6927 20.263 44.9997 20.6317C45.2543 20.9413 45.417 21.403 45.4768 22.014H41.6247C41.6543 21.7427 41.7145 21.4756 41.8042 21.2178C41.918 20.8554 42.1563 20.5442 42.4775 20.3386Z" fill="white"/>
<path id="Vector_12" d="M51.3169 16.7058H49.5988V18.9175H48.3134V20.2888H49.5988V24.7952C49.5988 25.5324 49.8075 26.0895 50.2248 26.4664C50.6422 26.8434 51.2107 27.0323 51.9304 27.0332C52.1563 27.0321 52.3816 27.0108 52.6037 26.9696C52.8247 26.9326 53.0405 26.8695 53.2464 26.7816V25.3094C53.1018 25.3904 52.947 25.4518 52.786 25.4919C52.6103 25.5384 52.4294 25.5621 52.2476 25.5624C51.8873 25.5624 51.6424 25.4698 51.5103 25.2859C51.3781 25.1021 51.3113 24.827 51.3113 24.4565V20.2833H53.2464V18.912H51.3169V16.7058Z" fill="white"/>
<path id="Vector_13" d="M60.7322 19.2037C60.16 18.883 59.4357 18.7227 58.5592 18.7227C57.3322 18.7227 56.3937 19.0563 55.7435 19.7235C55.0934 20.3907 54.7688 21.4385 54.7697 22.8669C54.7697 24.2123 55.0841 25.2473 55.7129 25.9716C56.3417 26.6959 57.3016 27.0586 58.5926 27.0595C59.8178 27.0595 60.761 26.6945 61.4222 25.9647C62.0835 25.2348 62.4141 24.2022 62.4141 22.8669C62.433 22.0952 62.2909 21.3281 61.9968 20.6137C61.7431 20.0181 61.2986 19.5224 60.7322 19.2037ZM60.5486 24.3183C60.4266 24.7095 60.1861 25.0537 59.86 25.3039C59.5428 25.5408 59.1143 25.6587 58.5745 25.6578C57.7927 25.6578 57.2362 25.4108 56.9052 24.9169C56.5741 24.4229 56.4104 23.74 56.4141 22.8683C56.4028 22.367 56.4723 21.8672 56.62 21.3878C56.7361 21.0066 56.9757 20.6742 57.3016 20.4423C57.6188 20.2211 58.0417 20.1105 58.5704 20.1105C59.0144 20.0894 59.455 20.1965 59.8391 20.4188C60.168 20.6404 60.4128 20.9649 60.5347 21.3408C60.6941 21.8316 60.7689 22.3457 60.7559 22.8614C60.7673 23.3545 60.6973 23.8463 60.5486 24.3169V24.3183Z" fill="white"/>
<path id="Vector_14" d="M69.644 19.1677C69.5305 19.1146 69.4139 19.0685 69.2948 19.0295C68.9997 18.9317 68.698 18.855 68.3919 18.8C68.1461 18.7526 67.8966 18.7262 67.6463 18.7212C66.3989 18.7212 65.4682 19.0838 64.8542 19.8091C64.2403 20.5344 63.9337 21.5218 63.9347 22.7714C63.9347 23.6533 64.046 24.3731 64.2685 24.9306C64.4523 25.4336 64.7632 25.8811 65.1714 26.23C65.5418 26.5349 65.9749 26.7557 66.4401 26.8769C66.9075 26.9982 67.3886 27.0596 67.8716 27.0594C68.2707 27.0585 68.6688 27.0215 69.0611 26.9488C69.4446 26.8815 69.8183 26.7678 70.174 26.6101C70.4873 26.4761 70.7664 26.2739 70.9906 26.0185C71.1959 25.7828 71.3064 25.4801 71.3008 25.1684V15.6027H69.644V19.1677ZM69.644 24.9942C69.644 25.1836 69.4742 25.337 69.1362 25.4518C68.7419 25.5757 68.3296 25.6341 67.9161 25.6245C67.3124 25.6245 66.8445 25.4988 66.5125 25.2472C66.1757 24.9926 65.9315 24.6359 65.8169 24.2312C65.6871 23.7682 65.6248 23.2892 65.6319 22.8087C65.618 22.3121 65.6987 21.8173 65.8698 21.3504C66.01 20.9791 66.269 20.6639 66.6071 20.4533C66.9952 20.2334 67.4378 20.1265 67.8841 20.145C68.1834 20.1469 68.4813 20.184 68.7717 20.2556C69.0778 20.3288 69.3716 20.4457 69.644 20.6025V24.9942Z" fill="white"/>
<path id="Vector_15" d="M73.688 18.959V26.8217H75.37L75.3533 18.959H73.688Z" fill="white"/>
<path id="Vector_16" d="M75.4173 16.1542H73.6407V17.6512H75.4173V16.1542Z" fill="white"/>
<path id="Vector_17" d="M82.3953 22.8365C82.1522 22.6682 81.8849 22.5377 81.6023 22.4494C81.3157 22.3609 81.0459 22.2738 80.7774 22.1895C80.5089 22.1052 80.2209 22.0223 79.9761 21.9379C79.7519 21.868 79.5462 21.7495 79.3737 21.591C79.2957 21.5125 79.235 21.4188 79.1954 21.3157C79.1559 21.2127 79.1385 21.1026 79.1442 20.9924C79.1415 20.8526 79.1794 20.715 79.2535 20.5961C79.3275 20.4772 79.4344 20.382 79.5615 20.322C79.88 20.16 80.2348 20.0815 80.5923 20.0939C80.9949 20.0858 81.3948 20.1611 81.7665 20.3151C82.1045 20.4616 82.4621 20.6358 82.8446 20.8348L82.8279 19.4166C82.4935 19.2395 82.1467 19.0866 81.7901 18.959C81.3466 18.8195 80.8837 18.7505 80.4184 18.7544C80.0676 18.7571 79.7185 18.8035 79.3793 18.8927C79.0345 18.9778 78.7074 19.1218 78.4124 19.3184C78.121 19.5126 77.8791 19.7715 77.7057 20.0746C77.5177 20.42 77.425 20.8087 77.4372 21.2012C77.4261 21.5496 77.4991 21.8956 77.65 22.2103C77.7858 22.4743 77.9816 22.7034 78.2218 22.8793C78.4613 23.0552 78.7257 23.195 79.0064 23.294C79.2911 23.3935 79.5768 23.4802 79.8634 23.5539C80.1416 23.646 80.4059 23.7382 80.6563 23.8303C80.8833 23.9099 81.095 24.0272 81.2824 24.1773C81.3644 24.2467 81.4292 24.3339 81.4719 24.4322C81.5146 24.5304 81.534 24.6372 81.5286 24.7441C81.528 24.8851 81.492 25.0238 81.424 25.1475C81.356 25.2713 81.2581 25.3764 81.1391 25.4532C80.8803 25.643 80.5237 25.7352 80.0693 25.7297C79.7413 25.7337 79.4141 25.6965 79.0955 25.6191C78.8069 25.547 78.5271 25.4441 78.2608 25.3122C77.9964 25.1804 77.727 25.0307 77.4525 24.8629V26.4236C77.8299 26.6006 78.2195 26.7507 78.6183 26.8729C79.0905 27.0032 79.5793 27.0642 80.0693 27.0539C80.5822 27.0547 81.0916 26.9692 81.5759 26.801C82.0382 26.6498 82.4478 26.3713 82.757 25.9978C83.0732 25.5871 83.2386 25.0813 83.2258 24.5644C83.2413 24.1932 83.1618 23.8241 82.9949 23.4917C82.8482 23.2304 82.6431 23.0063 82.3953 22.8365Z" fill="white"/>
<path id="Vector_18" d="M87.3909 16.7058H85.6784V18.9175H84.3944V20.2888H85.6784V24.7952C85.6784 25.5324 85.8875 26.0895 86.3058 26.4664C86.7241 26.8434 87.2921 27.0323 88.01 27.0332C88.2363 27.0321 88.4621 27.0108 88.6847 26.9696C88.9053 26.9328 89.1206 26.8697 89.326 26.7816V25.3094C89.1819 25.3904 89.0275 25.4518 88.8669 25.4919C88.6908 25.5384 88.5094 25.5621 88.3272 25.5624C87.9682 25.5624 87.7225 25.4702 87.5898 25.2859C87.4507 25.1035 87.3923 24.827 87.3923 24.4565V20.2833H89.326V18.912H87.3923L87.3909 16.7058Z" fill="white"/>
<path id="Vector_19" d="M97.6423 20.3302C97.5348 20.0504 97.3699 19.7957 97.1582 19.5824C96.9545 19.3786 96.7156 19.2129 96.4529 19.0931C96.1818 18.9703 95.8969 18.8803 95.6043 18.8249C95.309 18.7686 95.009 18.7399 94.7084 18.7392C94.1193 18.7373 93.5316 18.798 92.9555 18.9203C92.4986 18.9993 92.0604 19.162 91.6631 19.3999V20.9454C92.0106 20.6719 92.4099 20.4707 92.8373 20.3537C93.284 20.2167 93.7484 20.145 94.2159 20.1409C94.8401 20.1409 95.3214 20.2699 95.6599 20.5279C95.9984 20.7859 96.1677 21.1928 96.1677 21.7485V22.495C96.0373 22.4187 95.902 22.3508 95.7629 22.2918C95.4819 22.1756 95.1896 22.0886 94.8906 22.0319C94.5323 21.9663 94.1685 21.9348 93.8041 21.9379C93.272 21.9243 92.7428 22.0208 92.2502 22.2213C91.8356 22.394 91.4862 22.6919 91.2514 23.0728C91.0018 23.5146 90.8809 24.0167 90.9022 24.5228C90.8873 24.9516 90.9831 25.377 91.1804 25.7586C91.3554 26.0797 91.6126 26.3491 91.9261 26.5397C92.2468 26.7314 92.5983 26.867 92.9653 26.9405C93.3566 27.0207 93.7552 27.0606 94.1547 27.0594C94.7816 27.0653 95.4078 27.0153 96.0258 26.9101C96.5056 26.8409 96.9577 26.6447 97.3349 26.342C97.6558 26.0655 97.8167 25.6688 97.8176 25.1518V21.3697C97.8246 21.0154 97.7651 20.6629 97.6423 20.3302ZM95.7225 25.6411C95.2703 25.7413 94.807 25.7836 94.3439 25.7669C94.0553 25.7671 93.7687 25.7204 93.4953 25.6287C93.237 25.5475 93.0044 25.4007 92.8206 25.2029C92.6347 24.9923 92.538 24.7184 92.5507 24.4385C92.5398 24.2541 92.5772 24.07 92.6594 23.9042C92.7416 23.7385 92.8657 23.5968 93.0195 23.493C93.3311 23.2843 93.7888 23.1778 94.3912 23.1778C94.8198 23.1743 95.2468 23.2302 95.6599 23.3437C95.8327 23.3916 96.0023 23.4503 96.1677 23.5193V25.0537C96.1786 25.1898 96.1385 25.3251 96.055 25.4336C95.9716 25.542 95.8506 25.616 95.7156 25.6411H95.7225Z" fill="white"/>
<path id="Vector_20" d="M109.884 22.1273C110.304 21.8403 110.639 21.4489 110.858 20.9924C111.083 20.517 111.197 19.9971 111.191 19.4718C111.191 18.4222 110.897 17.632 110.31 17.1011C109.723 16.5703 108.877 16.3072 107.773 16.3118H103.079V26.8175H104.823V22.8516H107.06L109.533 26.8175H111.706L108.873 22.553C109.235 22.479 109.579 22.3342 109.884 22.1273ZM104.823 17.7771H107.567C108.222 17.7771 108.685 17.9347 108.958 18.2499C109.231 18.565 109.366 19.0115 109.363 19.5893C109.363 20.2095 109.191 20.6703 108.848 20.9717C108.505 21.273 107.984 21.4255 107.286 21.4292H104.823V17.7771Z" fill="white"/>
<path id="Vector_21" d="M120.055 20.8736C119.849 20.2393 119.447 19.6856 118.906 19.2908C118.377 18.912 117.685 18.7227 116.828 18.7227C115.665 18.7227 114.758 19.0775 114.108 19.787C113.458 20.4966 113.133 21.5394 113.134 22.9153C113.134 23.8082 113.29 24.5644 113.603 25.1837C113.889 25.7774 114.355 26.2679 114.934 26.5867C115.562 26.9143 116.264 27.0771 116.972 27.0595C117.5 27.0647 118.026 27.0147 118.543 26.9102C118.972 26.8207 119.391 26.6911 119.795 26.5231V24.9943C119.573 25.1031 119.346 25.2004 119.113 25.286C118.833 25.3909 118.544 25.4727 118.249 25.5306C117.918 25.5955 117.58 25.627 117.242 25.6246C116.438 25.6246 115.83 25.3942 115.418 24.9335C115.057 24.5326 114.854 23.9677 114.809 23.2387H120.397C120.422 22.4366 120.306 21.6364 120.055 20.8736ZM115.702 20.3386C116.031 20.1569 116.404 20.0671 116.78 20.0787C117.435 20.0787 117.917 20.263 118.224 20.6317C118.478 20.9413 118.642 21.403 118.702 22.014H114.85C114.879 21.7428 114.938 21.4757 115.028 21.2178C115.142 20.8553 115.381 20.5441 115.702 20.3386Z" fill="white"/>
<path id="Vector_22" d="M127.85 19.046C127.374 18.8414 126.761 18.7391 126.011 18.7391C125.682 18.7399 125.353 18.7606 125.027 18.8013C124.689 18.8442 124.355 18.9023 124.028 18.9755C123.714 19.045 123.405 19.1318 123.1 19.2354C122.832 19.3259 122.57 19.4335 122.316 19.5575V26.8175H123.985V20.4588C124.261 20.3616 124.545 20.2881 124.834 20.239C125.124 20.1874 125.418 20.161 125.713 20.1602C126.043 20.1484 126.373 20.1952 126.687 20.2984C126.909 20.3748 127.106 20.5084 127.259 20.6855C127.387 20.8418 127.479 21.0245 127.529 21.2204C127.576 21.4141 127.6 21.6127 127.599 21.8121V26.8175H129.269V21.5909C129.288 21.0372 129.168 20.4874 128.92 19.9915C128.684 19.563 128.306 19.2289 127.85 19.046Z" fill="white"/>
<path id="Vector_23" d="M137.159 19.2037C136.589 18.883 135.865 18.7227 134.986 18.7227C133.76 18.7227 132.822 19.0563 132.172 19.7235C131.522 20.3907 131.197 21.4385 131.198 22.8669C131.198 24.2123 131.513 25.2473 132.142 25.9716C132.77 26.6959 133.73 27.0586 135.02 27.0595C136.247 27.0595 137.191 26.6945 137.851 25.9647C138.511 25.2348 138.841 24.2022 138.841 22.8669C138.861 22.0952 138.719 21.3279 138.424 20.6137C138.171 20.0178 137.726 19.522 137.159 19.2037ZM136.977 24.3183C136.853 24.7103 136.61 25.0546 136.282 25.3039C135.964 25.5408 135.536 25.6587 134.998 25.6578C134.215 25.6578 133.658 25.4108 133.328 24.9169C132.998 24.4229 132.834 23.74 132.836 22.8683C132.825 22.3671 132.895 21.8674 133.042 21.3878C133.158 21.0065 133.398 20.6741 133.725 20.4423C134.042 20.2211 134.465 20.1105 134.993 20.1105C135.437 20.0894 135.878 20.1965 136.262 20.4188C136.592 20.6398 136.837 20.9646 136.958 21.3408C137.252 22.3114 137.255 23.3461 136.966 24.3183H136.977Z" fill="white"/>
<path id="Vector_24" d="M143.862 25.0094L141.33 18.912H139.554L142.901 26.8217H144.566L147.928 18.912H146.199L143.862 25.0094Z" fill="white"/>
<path id="Vector_25" d="M155.151 19.5824C154.948 19.3786 154.709 19.2129 154.446 19.0931C154.175 18.9703 153.89 18.8803 153.597 18.8249C153.302 18.7686 153.002 18.7399 152.701 18.7392C152.112 18.7373 151.525 18.798 150.949 18.9203C150.492 18.9993 150.053 19.162 149.656 19.3999V20.9454C150.004 20.6722 150.403 20.471 150.83 20.3537C151.277 20.2166 151.742 20.1449 152.21 20.1409C152.834 20.1409 153.314 20.2699 153.653 20.5279C153.991 20.7859 154.161 21.1928 154.161 21.7485V22.495C154.03 22.4187 153.895 22.3508 153.756 22.2918C153.475 22.1756 153.183 22.0886 152.884 22.0319C152.525 21.9663 152.162 21.9348 151.797 21.9379C151.265 21.9243 150.736 22.0208 150.243 22.2213C149.829 22.394 149.479 22.6919 149.244 23.0728C148.996 23.5148 148.875 24.0167 148.895 24.5228C148.88 24.9516 148.976 25.377 149.173 25.7586C149.348 26.0797 149.606 26.3491 149.919 26.5397C150.24 26.7314 150.591 26.867 150.958 26.9405C151.35 27.0206 151.748 27.0604 152.148 27.0594C152.775 27.0653 153.401 27.0153 154.019 26.9101C154.499 26.8409 154.951 26.6447 155.328 26.342C155.649 26.0655 155.81 25.6688 155.811 25.1518V21.3697C155.819 21.0155 155.76 20.6629 155.637 20.3302C155.529 20.0502 155.363 19.7956 155.151 19.5824ZM153.717 25.6411C153.264 25.7412 152.8 25.7835 152.337 25.7669C152.048 25.7671 151.762 25.7204 151.488 25.6287C151.23 25.5471 150.998 25.4005 150.814 25.2029C150.628 24.9921 150.532 24.7182 150.545 24.4385C150.534 24.2542 150.572 24.0703 150.654 23.9046C150.736 23.739 150.859 23.5972 151.013 23.493C151.324 23.2843 151.782 23.1778 152.384 23.1778C152.813 23.1743 153.24 23.2302 153.653 23.3437C153.826 23.3916 153.995 23.4503 154.161 23.5193V25.0537C154.172 25.1886 154.133 25.3229 154.051 25.4312C153.969 25.5395 153.85 25.6142 153.717 25.6411Z" fill="white"/>
<path id="Vector_26" d="M163.454 19.1677C163.34 19.1146 163.224 19.0685 163.104 19.0295C162.809 18.9315 162.507 18.8548 162.2 18.8C161.955 18.7525 161.706 18.7262 161.456 18.7212C160.209 18.7212 159.278 19.0838 158.664 19.8091C158.05 20.5344 157.742 21.5223 157.74 22.7728C157.74 23.6547 157.851 24.3745 158.074 24.932C158.258 25.4349 158.569 25.8824 158.977 26.2314C159.347 26.5363 159.78 26.7571 160.246 26.8783C160.712 26.9988 161.191 27.0597 161.673 27.0594C162.072 27.0584 162.47 27.0214 162.862 26.9488C163.246 26.8815 163.62 26.7678 163.975 26.6101C164.289 26.4761 164.568 26.2739 164.792 26.0185C164.997 25.7828 165.108 25.4801 165.102 25.1684V15.6027H163.452L163.454 19.1677ZM163.454 24.9942C163.454 25.1836 163.284 25.337 162.946 25.4518C162.551 25.5759 162.138 25.6342 161.724 25.6245C161.122 25.6245 160.654 25.4988 160.322 25.2472C159.985 24.9926 159.741 24.6359 159.627 24.2312C159.494 23.7673 159.43 23.2868 159.436 22.8046C159.422 22.3079 159.503 21.8131 159.674 21.3462C159.814 20.975 160.073 20.6598 160.411 20.4491C160.799 20.2292 161.242 20.1224 161.688 20.1408C161.987 20.1428 162.285 20.1799 162.576 20.2514C162.882 20.3249 163.176 20.4418 163.448 20.5984L163.454 24.9942Z" fill="white"/>
<path id="Vector_27" d="M173.826 20.3302C173.719 20.0504 173.554 19.7957 173.342 19.5824C173.138 19.3786 172.899 19.2129 172.637 19.0931C172.365 18.9705 172.081 18.8805 171.788 18.8249C171.493 18.7686 171.193 18.7399 170.892 18.7392C170.303 18.7372 169.715 18.7979 169.139 18.9203C168.682 18.9991 168.244 19.1617 167.847 19.3999V20.9454C168.194 20.6719 168.593 20.4707 169.02 20.3537C169.467 20.2167 169.932 20.145 170.4 20.1409C171.024 20.1409 171.504 20.2694 171.844 20.5279C172.183 20.7864 172.35 21.1914 172.35 21.7485V22.495C172.22 22.4187 172.085 22.3508 171.947 22.2918C171.666 22.1758 171.373 22.0888 171.074 22.0319C170.716 21.9663 170.352 21.9348 169.988 21.9379C169.456 21.9243 168.927 22.0208 168.434 22.2213C168.019 22.3943 167.669 22.6921 167.434 23.0728C167.185 23.515 167.065 24.0169 167.086 24.5228C167.071 24.9516 167.167 25.377 167.364 25.7587C167.539 26.0797 167.796 26.3491 168.11 26.5397C168.431 26.7314 168.782 26.867 169.149 26.9405C169.54 27.0207 169.939 27.0606 170.338 27.0594C170.965 27.0652 171.592 27.0153 172.21 26.9101C172.689 26.841 173.141 26.6447 173.517 26.342C173.84 26.0655 174.001 25.6688 174.001 25.1518V21.3698C174.008 21.0154 173.949 20.6629 173.826 20.3302ZM171.906 25.6412C171.454 25.7413 170.99 25.7836 170.526 25.7669C170.238 25.7671 169.952 25.7204 169.679 25.6287C169.421 25.5475 169.188 25.4008 169.004 25.203C168.818 24.9923 168.722 24.7184 168.734 24.4385C168.724 24.2541 168.761 24.07 168.843 23.9042C168.925 23.7385 169.049 23.5968 169.203 23.493C169.515 23.2843 169.971 23.1778 170.575 23.1778C171.004 23.1745 171.431 23.2304 171.844 23.3437C172.016 23.3914 172.185 23.4501 172.35 23.5193V25.0537C172.361 25.1886 172.322 25.3229 172.241 25.4312C172.159 25.5395 172.04 25.6142 171.906 25.6412Z" fill="white"/>
<path id="Vector_28" d="M27.9636 9.21082H27.5393V13.12H27.9636V9.21082Z" fill="white"/>
<path id="Vector_29" d="M30.6416 11.5206H31.5917V12.6265C31.3003 12.7209 30.9954 12.7675 30.6889 12.7647C30.4064 12.7758 30.1257 12.7164 29.8723 12.5919C29.656 12.4758 29.4877 12.2879 29.3965 12.0611C29.2854 11.7714 29.2334 11.4627 29.2435 11.1529C29.2334 10.844 29.2854 10.5362 29.3965 10.2475C29.4886 10.0223 29.6568 9.83606 29.8723 9.72084C30.1255 9.59587 30.4063 9.53599 30.6889 9.54666C30.8968 9.54653 31.1036 9.57728 31.3024 9.6379C31.499 9.69766 31.6918 9.76921 31.8797 9.85216V9.42225C31.6898 9.33291 31.4899 9.2661 31.2843 9.2232C31.0747 9.18005 30.8612 9.15828 30.6471 9.15823C30.2974 9.14676 29.9505 9.22331 29.6385 9.38078C29.3664 9.53097 29.1518 9.76613 29.0278 10.0498C28.8822 10.4 28.8129 10.7769 28.8247 11.1557C28.8123 11.5381 28.8815 11.9187 29.0278 12.2726C29.1516 12.5579 29.3661 12.7949 29.6385 12.9472C29.95 13.1062 30.2971 13.1838 30.6471 13.1725C30.8852 13.1726 31.1226 13.1472 31.3552 13.0965C31.5852 13.0448 31.8087 12.9678 32.0216 12.867V11.1101H30.6471L30.6416 11.5206Z" fill="white"/>
<path id="Vector_30" d="M35.2602 11.3686C35.4272 11.2684 35.5637 11.1251 35.6553 10.9539C35.7513 10.7671 35.7992 10.5595 35.7944 10.3498C35.7944 9.97567 35.697 9.69229 35.5023 9.49968C35.3075 9.30892 35.0167 9.21216 34.6314 9.21216H33.019V13.1214H33.4433V11.5441H34.445L35.4716 13.12H35.9739L34.9013 11.4971C35.0278 11.4763 35.1494 11.4327 35.2602 11.3686ZM33.4433 9.61027H34.5869C34.8901 9.61027 35.096 9.67939 35.2073 9.81762C35.323 9.97836 35.3809 10.1731 35.3715 10.3705C35.3789 10.476 35.3629 10.5818 35.3247 10.6804C35.2864 10.779 35.2269 10.8681 35.1503 10.9415C35.0028 11.0723 34.7659 11.1377 34.4394 11.1377H33.4433V9.61027Z" fill="white"/>
<path id="Vector_31" d="M36.7404 13.12H39.2236V12.7219H37.1647V11.3672H38.976V10.9567H37.1647V9.60893H39.2236V9.21082H36.7404V13.12Z" fill="white"/>
<path id="Vector_32" d="M41.4119 11.9188C41.4119 12.216 41.3534 12.4303 41.2352 12.5602C41.1584 12.632 41.067 12.6867 40.9672 12.7205C40.8674 12.7544 40.7614 12.7666 40.6565 12.7565C40.5209 12.7581 40.3862 12.7357 40.2586 12.6901C40.1434 12.6473 40.0337 12.5911 39.9317 12.5229V12.9625C40.1677 13.1 40.4371 13.1707 40.7107 13.167C40.8426 13.1668 40.9739 13.15 41.1016 13.1173C41.244 13.0825 41.3757 13.014 41.4857 12.9178C41.5956 12.8215 41.6806 12.7002 41.7332 12.5643C41.8088 12.3692 41.8439 12.1609 41.8362 11.952V9.21082H41.4119V11.9188Z" fill="white"/>
<path id="Vector_33" d="M45.5589 13.12H46.0124L44.4502 9.21082H44.0245L42.4552 13.12H42.9157L43.3887 11.9008H45.0859L45.5589 13.12ZM43.5459 11.4972L44.2415 9.7126L44.9371 11.4972H43.5459Z" fill="white"/>
</g>
<defs>
<clipPath id="clip0_3_37">
<rect width="174" height="36" fill="white" transform="translate(0 0.108154)"/>
</clipPath>
</defs>
</svg>
